<svg width="175" height="37" viewBox="0 0 175 37" fill="none" xmlns="http://www.w3.org/2000/svg">
<path d="M174.313 20.1707L158.784 35.6999C158.341 36.1432 157.75 36.3865 157.12 36.3865C156.489 36.3865 155.899 36.1428 155.455 35.6999L154.046 34.2896C153.603 33.8471 153.359 33.2559 153.359 32.6256C153.359 31.9956 153.603 31.3846 154.046 30.942L163.105 21.8628H134.323C133.025 21.8628 132 20.8468 132 19.5488V17.5551C132 16.2571 133 15.1387 134.323 15.1387H163.208L154.046 6.00882C153.603 5.56554 153.359 4.99046 153.359 4.36015C153.359 3.73053 153.603 3.14707 154.046 2.70414L155.456 1.29844C155.899 0.855156 156.49 0.613586 157.12 0.613586C157.75 0.613586 158.341 0.858299 158.784 1.30158L174.313 16.8304C174.757 17.2751 175.002 17.8687 175 18.4997C175.001 19.1328 174.757 19.7268 174.313 20.1707Z" fill="#55A8A7"/>
<path d="M0 18C0 16.3431 1.34315 15 3 15H135C136.657 15 138 16.3431 138 18V19C138 20.6569 136.657 22 135 22H3C1.34315 22 0 20.6569 0 19V18Z" fill="#55A8A7"/>
</svg>
