<svg width="81" height="80" viewBox="0 0 81 80" fill="none" xmlns="http://www.w3.org/2000/svg">
<path fill-rule="evenodd" clip-rule="evenodd" d="M14.3447 16.6664C14.3447 11.6038 18.5001 7.49976 23.626 7.49976H50.5814C52.4842 7.49976 54.2703 8.40499 55.3797 9.93159L65.5492 23.9246C66.2698 24.916 66.6572 26.1057 66.6572 27.3261V63.3331C66.6572 68.3958 62.5019 72.4997 57.376 72.4997H23.626C18.5001 72.4997 14.3447 68.3958 14.3447 63.3331V16.6664ZM23.626 12.4998C21.296 12.4998 19.4072 14.3652 19.4072 16.6664V63.3331C19.4072 65.6344 21.296 67.4997 23.626 67.4997H57.376C59.7061 67.4997 61.5947 65.6344 61.5947 63.3331V29.6566H50.626C49.228 29.6566 48.0947 28.5373 48.0947 27.1566V12.4998H23.626Z" fill="#358E8D"/>
<path d="M26.1289 35.6729L26.2903 35.8159L37.0729 46.6305L42.7152 40.9722C43.3328 40.3526 44.3048 40.3049 44.977 40.8292L45.1384 40.9722L52.4941 48.3492L54.7094 46.1284C55.7419 45.0927 57.4754 45.7493 57.6242 47.1484L57.6345 47.3438L57.6315 54.3208L57.6161 54.4713L57.5733 54.6757L57.5318 54.806L57.474 54.9462L57.3843 55.1137L57.2696 55.2793L57.1326 55.4341C57.072 55.4949 57.0079 55.5502 56.941 55.6L56.7504 55.7232L56.5573 55.8151L56.3768 55.8759L56.1754 55.9186L56.0739 55.9307L55.921 55.9375H49.0672C47.607 55.9375 46.8441 54.2436 47.7251 53.1488L47.8556 53.0034L50.0695 50.7812L43.9268 44.6195L38.2845 50.2778C37.6669 50.8974 36.6949 50.9451 36.0227 50.4208L35.8613 50.2778L23.8671 38.2466C23.1979 37.5754 23.1979 36.4871 23.8671 35.8159C24.4848 35.1963 25.4567 35.1487 26.1289 35.6729Z" fill="#358E8D"/>
</svg>
