<svg width="80" height="80" viewBox="0 0 80 80" fill="none" xmlns="http://www.w3.org/2000/svg">
<path d="M32.4768 45.8098C30.6382 46.3671 28.6876 46.6667 26.667 46.6667C15.6213 46.6667 6.66699 37.7124 6.66699 26.6667C6.66699 23.5791 7.36667 20.6549 8.61613 18.044L23.1662 32.594L32.5942 23.1659L18.0442 8.61589C20.6551 7.36643 23.5793 6.66675 26.667 6.66675C37.7127 6.66675 46.667 15.6211 46.667 26.6667C46.667 29.6014 46.0349 32.3885 44.8995 34.8992L68.6199 58.6196C71.2234 61.2231 71.2234 65.4442 68.6199 68.0477L66.3813 70.2863C63.7778 72.8898 59.5567 72.8898 56.9532 70.2863L32.4768 45.8098Z" stroke="#358E8D" stroke-width="5" stroke-linecap="square"/>
</svg>
