<svg width="36" height="36" viewBox="" fill="none" xmlns="http://www.w3.org/2000/svg">
<path d="M7.42801 14.6488C10.275 20.8494 15.3409 25.7794 21.6391 28.452L22.6487 28.9018C24.9586 29.9311 27.6739 29.1492 29.0827 27.0493L30.402 25.0828C30.8311 24.4434 30.7005 23.5822 30.1012 23.0988L25.6267 19.4891C24.9696 18.9589 24.0033 19.0825 23.5004 19.7608L22.1163 21.6286C18.5645 19.8765 15.6808 16.993 13.9288 13.4412L15.7965 12.057C16.475 11.5543 16.5985 10.5879 16.0682 9.93067L12.4585 5.45614C11.9752 4.85703 11.1143 4.72634 10.4749 5.15504L8.49485 6.48272C6.38182 7.89953 5.60429 10.6373 6.65718 12.9532L7.42685 14.6463L7.42801 14.6488Z" fill="#55A8A7"/>
</svg>
