<?xml version="1.0" encoding="utf-8"?><svg xmlns="http://www.w3.org/2000/svg" xmlns:xlink="http://www.w3.org/1999/xlink"><symbol viewBox="0" id="phone" xmlns="http://www.w3.org/2000/svg"><path d="M7.428 14.649a27.434 27.434 0 0014.211 13.803l1.01.45a5.2 5.2 0 006.434-1.853l1.319-1.966c.43-.64.299-1.5-.3-1.984l-4.475-3.61a1.486 1.486 0 00-2.127.272l-1.384 1.868a18.035 18.035 0 01-8.187-8.188l1.867-1.384c.679-.503.803-1.47.272-2.126l-3.61-4.475a1.486 1.486 0 00-1.983-.301l-1.98 1.328a5.2 5.2 0 00-1.838 6.47l.77 1.693.001.003z"/></symbol></svg>