<svg width="166" height="90" viewBox="0 0 166 90" fill="none" xmlns="http://www.w3.org/2000/svg">
<path d="M6 39C2.68629 39 0 41.6863 0 45C0 48.3137 2.68629 51 6 51L6 39ZM164.243 49.2426C166.586 46.8995 166.586 43.1005 164.243 40.7574L126.059 2.57359C123.716 0.230446 119.917 0.230446 117.574 2.57359C115.23 4.91674 115.23 8.71573 117.574 11.0589L151.515 45L117.574 78.9411C115.23 81.2843 115.23 85.0833 117.574 87.4264C119.917 89.7696 123.716 89.7696 126.059 87.4264L164.243 49.2426ZM6 51L160 51V39L6 39L6 51Z" fill="#FAFFFF" fill-opacity="0.2"/>
</svg>
