<svg width="76" height="76" viewBox="0 0 76 76" fill="none" xmlns="http://www.w3.org/2000/svg">
<path d="M11.4405 19.6641L11.7388 19.9275L31.6663 39.8525L42.0938 29.4275C43.2354 28.286 45.0316 28.1982 46.2739 29.1641L46.5722 29.4275L60.1663 43.0192L64.2605 38.9275C66.1687 37.0193 69.3724 38.2291 69.6474 40.8068L69.6663 41.1667L69.6608 54.0214L69.6324 54.2987L69.5532 54.6752L69.4767 54.9153L69.3697 55.1735L69.204 55.4822L68.9921 55.7872L68.7388 56.0726C68.6268 56.1846 68.5084 56.2865 68.3848 56.3783L68.0325 56.6052L67.6756 56.7745L67.342 56.8865L66.9698 56.9651L66.7823 56.9874L66.4997 57H53.833C51.1345 57 49.7245 53.8792 51.3528 51.862L51.5938 51.5942L55.6855 47.5L44.333 36.1475L33.9055 46.5725C32.764 47.714 30.9677 47.8018 29.7255 46.8359L29.4272 46.5725L7.2605 24.4058C6.02384 23.1692 6.02384 21.1642 7.2605 19.9275C8.40204 18.786 10.1983 18.6982 11.4405 19.6641Z" fill="#358E8D"/>
</svg>
