<svg width="81" height="80" viewBox="0 0 81 80" fill="none" xmlns="http://www.w3.org/2000/svg">
<path fill-rule="evenodd" clip-rule="evenodd" d="M52.0884 24.899C53.0602 25.8753 53.0602 27.4582 52.0884 28.4345L40.4767 40.1011C39.5049 41.0774 37.9297 41.0774 36.958 40.1011L30.3225 33.4344C29.3508 32.4582 29.3508 30.8753 30.3225 29.899C31.2943 28.9227 32.8697 28.9227 33.8414 29.899L38.7173 34.7977L48.5697 24.899C49.5415 23.9227 51.1167 23.9227 52.0884 24.899Z" fill="#358E8D"/>
<path fill-rule="evenodd" clip-rule="evenodd" d="M12.2576 29.5229C13.4331 15.1942 25.3506 4.16675 39.6602 4.16675H41.0934C55.4031 4.16675 67.3204 15.1942 68.4958 29.5229C69.1275 37.2201 66.761 44.8631 61.895 50.8421L45.9935 70.3814C43.0906 73.9484 37.6629 73.9484 34.76 70.3814L18.8584 50.8421C13.9925 44.8631 11.6261 37.2201 12.2576 29.5229ZM39.6602 9.16675C27.9405 9.16675 18.18 18.1983 17.2172 29.9337C16.6916 36.3398 18.6612 42.7008 22.7109 47.6771L38.6124 67.2164C39.5245 68.3368 41.2291 68.3368 42.1411 67.2164L58.0426 47.6771C62.0924 42.7008 64.0618 36.3398 63.5363 29.9337C62.5735 18.1983 52.813 9.16675 41.0934 9.16675H39.6602Z" fill="#358E8D"/>
</svg>
